{"title":"The.Hooligan.Factory.2014.BRRip.720p.x264.AAC-PRiSTiNE [P2PDL]","uid":10668326,"size":550866695,"categoryP":"video","categoryS":"movies","magnet":"?xt=urn:btih:8a181da389c7c9245cd9372b9fa95759f927c7ea&amp;dn=The.Hooligan.Factory.2014.BRRip.720p.x264.AAC-PRiSTiNE+%5BP2PDL%5D&amp;tr=udp%3A%2F%2Ftracker.openbittorrent.com%3A80&amp;tr=udp%3A%2F%2Fopen.demonii.com%3A1337&amp;tr=udp%3A%2F%2Ftracker.coppersurfer.tk%3A6969&amp;tr=udp%3A%2F%2Fexodus.desync.com%3A6969","seeders":3,"leechers":0,"uploader":"ValidusVyto","files":-1,"time":1406837056,"description":" ___    ___       ___   _____    _   _  ___   \n(  _` |  _`  _ (  _`(_   _)_ ( ) ( )(  _` \n| |_) )| (_) )(_)| (_(_) | | (_)| `| || (_(_)\n| ,__/'| ,  / | |`__   | | | || , ` ||  _)_ \n| |    | |  | |( )_) | | | | || |` || (_( )\n(_)    (_) (_)(_)`____) (_) (_)(_) (_)(____/' \n\n\n\nThe.Hooligan.Factory.2014.BRRip.720p.x264.AAC-PRiSTiNE\n\n\nGenre: Comedy &lt;a href=&quot;\nhttp://www.imdb.com/title/tt2360446/&quot; rel=&quot;nofollow&quot; target=&quot;_NEW&quot;&gt;\nhttp://www.imdb.com/title/tt2360446/&lt;/a&gt;\n\nGeneral\nFormat                                   : MPEG-4\nFile size                                : 517 MiB\nDuration                                 : 1h 29mn\nOverall bit rate                         : 805 Kbps\n\nVideo\nFormat                                   : AVC\nBit rate                                 : 720 Kbps\nWidth                                    : 1 280 pixels\nHeight                                   : 544 pixels\nDisplay aspect ratio                     : 2.35:1\nFrame rate                               : 23.976 fps\nBit depth                                : 8 bits\nScan type                                : Progressive\nStream size                              : 462 MiB (89%)\nWriting library                          : x264 core 142 r2431 ac76440\n\nAudio\nFormat                                   : AAC\nBit rate                                 : 80.0 Kbps\nChannel(s)                               : 2 channels\nChannel positions                        : Front: L R\nSampling rate                            : 48.0 KHz\nStream size                              : 51.4 MiB (10%)\nLanguage                                 : English\n\nSubtitle                                 : N/a\n &lt;a href=&quot;\nhttp://someimage.com/c79gbpE&quot; rel=&quot;nofollow&quot; target=&quot;_NEW&quot;&gt;\nhttp://someimage.com/c79gbpE&lt;/a&gt; &lt;a href=&quot;\nhttp://someimage.com/WWtzf19&quot; rel=&quot;nofollow&quot; target=&quot;_NEW&quot;&gt;\nhttp://someimage.com/WWtzf19&lt;/a&gt; &lt;a href=&quot;\nhttp://someimage.com/0Exx5f6&quot; rel=&quot;nofollow&quot; target=&quot;_NEW&quot;&gt;\nhttp://someimage.com/0Exx5f6&lt;/a&gt; &lt;a href=&quot;\nhttp://someimage.com/VtVS6RR&quot; rel=&quot;nofollow&quot; target=&quot;_NEW&quot;&gt;\nhttp://someimage.com/VtVS6RR&lt;/a&gt; &lt;a href=&quot;\nhttp://someimage.com/Y9iRXcR&quot; rel=&quot;nofollow&quot; target=&quot;_NEW&quot;&gt;\nhttp://someimage.com/Y9iRXcR&lt;/a&gt; &lt;a href=&quot;\nhttp://someimage.com/msdzRWC&quot; rel=&quot;nofollow&quot; target=&quot;_NEW&quot;&gt;\nhttp://someimage.com/msdzRWC&lt;/a&gt; &lt;a href=&quot;\nhttp://someimage.com/qn7Wulk&quot; rel=&quot;nofollow&quot; target=&quot;_NEW&quot;&gt;\nhttp://someimage.com/qn7Wulk&lt;/a&gt; &lt;a href=&quot;\nhttp://someimage.com/yQE3OqQ&quot; rel=&quot;nofollow&quot; target=&quot;_NEW&quot;&gt;\nhttp://someimage.com/yQE3OqQ&lt;/a&gt;\n\n----------------------------------------------------------------------------------------------------\n\n\nRecommend to you to use latest version of VLC player. Install K-Lite Codec Pack or shark007 codecs\nin case of any kind of problem in playback (For non-VLC Media Player users). Alternatively, install\nCore AVC codecs, the fastest decoder that there is coupled with Community Center Codec Pack and play\non Windows Media Player Classic. Check sample to be sure.\n\nEncoder Notes: Looking For Early Access To Anything You Can Provide DVDScr, R5, DVDR, BluRay, Direct\nAudio, Music Releases and Seedboxes. We require dedicated servers, so as to do more \nand fast releases of movies.","torrent":{"xt":"urn:btih:8a181da389c7c9245cd9372b9fa95759f927c7ea","amp;dn":"The.Hooligan.Factory.2014.BRRip.720p.x264.AAC-PRiSTiNE+%5BP2PDL%5D","amp;tr":["udp%3A%2F%2Ftracker.openbittorrent.com%3A80","udp%3A%2F%2Fopen.demonii.com%3A1337","udp%3A%2F%2Ftracker.coppersurfer.tk%3A6969","udp%3A%2F%2Fexodus.desync.com%3A6969"],"infoHash":"8a181da389c7c9245cd9372b9fa95759f927c7ea","infoHashBuffer":{"type":"Buffer","data":[138,24,29,163,137,199,201,36,92,217,55,43,159,169,87,89,249,39,199,234]},"announce":[],"urlList":[]}}